<?xml version="1.0" standalone="no"?>
<!DOCTYPE svg PUBLIC "-//W3C//DTD SVG 20010904//EN"
 "http://www.w3.org/TR/2001/REC-SVG-20010904/DTD/svg10.dtd">
<svg version="1.0" xmlns="http://www.w3.org/2000/svg"
 width="190.000000pt" height="190.000000pt" viewBox="0 0 190.000000 190.000000"
 preserveAspectRatio="xMidYMid meet">
<metadata>
Created by potrace 1.11, written by Peter Selinger 2001-2013
</metadata>
<g transform="translate(0.000000,190.000000) scale(0.100000,-0.100000)"
fill="#000000" stroke="none">
<path d="M280 1584 c-267 -70 -365 -395 -179 -598 164 -180 445 -154 579 53
100 156 58 377 -93 488 -79 59 -208 83 -307 57z"/>
<path d="M1184 1474 c-135 -28 -232 -82 -323 -179 -64 -69 -80 -95 -118 -185
-82 -197 -40 -446 105 -615 34 -41 136 -117 186 -140 167 -77 350 -79 515 -4
36 16 68 33 71 38 3 4 13 12 22 17 16 9 100 88 126 118 38 47 93 165 109 236
12 53 14 176 4 235 -20 112 -105 270 -175 326 -12 9 -32 27 -46 38 -110 97
-320 148 -476 115z"/>
</g>
</svg>
